<?xml version="1.0" encoding="UTF-8"?>
<svg id="Layer_1" data-name="Layer 1" xmlns="http://www.w3.org/2000/svg" version="1.1" viewBox="0 0 2993 377.6">
  <defs>
    <style>
      .cls-1 {
        fill: #fff;
        stroke-width: 0px;
      }
    </style>
  </defs>
  <g>
    <path class="cls-1" d="M2943,2.2h-56.4c-19.5,0-37.2,11.4-45.4,29.1l-43.5,94.5-43.5-94.5c-8.2-17.7-25.9-29.1-45.4-29.1h-56.4c-10.5,0-20.2,3.2-28.2,8.7-8-5.5-17.7-8.7-28.2-8.7h-62.9c-26.5,0-48.2,20.6-49.9,46.7-1.7-26.1-23.4-46.7-49.9-46.7h-62.9c-27.6,0-50,22.4-50,50v9.1c-32.9-37.9-81.4-61.2-134.4-61.2-101.7,0-184.5,84.7-184.5,188.8s82.7,188.8,184.5,188.8,41.2-3.7,60.6-10.9c8.2,5.6,18,8.8,28.3,8.8h43.4c25.1,0,45.8-18.5,49.4-42.6,28.8,28.1,69,44.8,115.4,44.8s90.3-18.2,119.3-48.7c1.8,26,23.4,46.6,49.8,46.6h62.9c11.9,0,22.9-4.2,31.4-11.1,8.7,7.1,19.8,11.1,31.4,11.1h39c11.7,0,22.7-4.1,31.4-11.1,8.6,7,19.5,11.1,31.4,11.1h62.9c27.6,0,50-22.4,50-50V52.2c0-27.6-22.4-50-50-50ZM2326.7,326.6c0,4.4-3.6,8-8,8h-43.4c-3.2,0-6.1-1.9-7.3-4.9l-5.9-37.3c-3.7,5.9-20,20.5-25.2,24.7-16.5,13.5-29.4,16.9-50.6,16.9-79.9,0-142.6-61.8-142.6-144.2s62.6-146.9,142.6-146.9,118.4,51,131.5,101.5c.6,2.3.1,4.7-1.3,6.7-1.4,1.9-3.6,3.1-5.9,3.3l-65.1,4.3c-.2,0-.4,0-.5,0-3.3,0-6.4-2.1-7.5-5.3-2.8-7.9-14.8-33.8-51.1-33.8s-63.7,30.2-63.7,70.2,27.4,70.2,63.7,70.2,39.8-11.4,47.1-21h-47.1c-4.4,0-8-3.6-8-8v-52.1c0-4.4,3.6-8,8-8h132.4c4.4,0,8,3.6,8,8v147.6ZM2604.6,215.8c0,71.2-49.7,120.9-120.9,120.9s-120.9-49.7-120.9-120.9V53c0-4.4,3.6-8,8-8h63c4.4,0,8,3.6,8,8v162.8c0,28.1,15.3,44.2,42,44.2s42-16.1,42-44.2V53c0-4.4,3.6-8,8-8h63c4.4,0,8,3.6,8,8v162.8ZM2952,326.6c0,4.4-3.6,8-8,8h-63c-4.4,0-8-3.6-8-8v-100.5l-47.8,103.8c-1.3,2.8-4.1,4.6-7.2,4.6h-39.1c-3.1,0-5.9-1.8-7.2-4.6l-47.8-103.8v100.5c0,4.4-3.6,8-8,8h-63c-4.4,0-8-3.6-8-8V53c0-4.4,3.6-8,8-8h56.4c3.1,0,5.9,1.8,7.2,4.6l81.8,177.5,81.8-177.5c1.3-2.8,4.1-4.6,7.2-4.6h56.5c4.4,0,8,3.6,8,8v273.6Z"/>
    <g>
      <path class="cls-1" d="M1698.5,343.7l-61.1-104.7c6.8-3.9,15.3-10,22.9-17.7,13.8-13.9,30.2-38.2,29.9-75.1,0-58.4-48.1-102.5-111.8-102.5h-119.7c-4.7,0-8.6,3.9-8.6,8.6v295.7c0,4.7,3.9,8.6,8.6,8.6h68c4.7,0,8.6-3.9,8.6-8.6v-90h21.5l51.5,94.1c1.5,2.8,4.4,4.5,7.5,4.5h75.1c3.1,0,5.9-1.6,7.5-4.3,1.5-2.7,1.5-6,0-8.6ZM1578.4,183.8h-51.6v-65.7h51.6c23.9,0,37.5,14.1,37.5,32.8s-13.6,32.9-37.5,32.9Z"/>
      <path class="cls-1" d="M257.3,43.8h-68c-4.7,0-8.6,3.9-8.6,8.6v104h-95.4V52.4c0-4.7-3.9-8.6-8.6-8.6H8.6c-4.7,0-8.6,3.9-8.6,8.6v295.7c0,4.7,3.9,8.6,8.6,8.6h68c4.7,0,8.6-3.9,8.6-8.6v-108.7h95.4v108.7c0,4.7,3.9,8.6,8.6,8.6h68c4.7,0,8.6-3.9,8.6-8.6V52.4c0-4.7-3.9-8.6-8.6-8.6Z"/>
      <path class="cls-1" d="M463.8,41.4c-86.4,0-154.1,69.7-154.1,158.8s67.7,158.8,154.1,158.8,154.1-69.7,154.1-158.8-67.7-158.8-154.1-158.8ZM463.8,276.1c-39.2,0-68.8-32.6-68.8-75.9s29.6-75.9,68.8-75.9,68.8,32.6,68.8,75.9-29.6,75.9-68.8,75.9Z"/>
      <path class="cls-1" d="M874.4,43.8h-237c-4.7,0-8.6,3.9-8.6,8.6v65.7c0,4.7,3.9,8.6,8.6,8.6h75.9v221.4c0,4.7,3.9,8.6,8.6,8.6h68c4.7,0,8.6-3.9,8.6-8.6V126.7h75.9c4.7,0,8.6-3.9,8.6-8.6V52.4c0-4.7-3.9-8.6-8.6-8.6Z"/>
      <rect class="cls-1" x="1316.4" y="43.8" width="85.2" height="312.9" rx="8.6" ry="8.6"/>
      <path class="cls-1" d="M1946.8,273.7h-125.2V52.4c0-4.7-3.9-8.6-8.6-8.6h-68c-4.7,0-8.6,3.9-8.6,8.6v295.7c0,4.7,3.9,8.6,8.6,8.6h201.8c4.7,0,8.6-3.9,8.6-8.6v-65.7c0-4.7-3.9-8.6-8.6-8.6Z"/>
    </g>
  </g>
  <path class="cls-1" d="M1286,350.3c0,4.8-3.9,8.7-8.7,8.7h-47.3c-3.5,0-6.7-2.1-8-5.3l-6.4-40.6c-4,6.5-21.7,22.3-27.4,26.9-17.9,14.7-32.1,18.4-55.1,18.4-87,0-155.2-67.3-155.2-157s68.2-160,155.2-160,128.9,55.5,143.1,110.5c.6,2.5.1,5.2-1.4,7.2-1.5,2.1-3.9,3.4-6.4,3.6l-70.9,4.7c-.2,0-.4,0-.6,0-3.6,0-6.9-2.3-8.2-5.8-3.1-8.6-16.1-36.8-55.7-36.8s-69.3,32.9-69.3,76.4,29.8,76.4,69.3,76.4,43.4-12.4,51.3-22.9h-51.3c-4.8,0-8.7-3.9-8.7-8.7v-56.7c0-4.8,3.9-8.7,8.7-8.7h144.2c4.8,0,8.7,3.9,8.7,8.7v160.7Z"/>
</svg>